HIERARCHY
ROOT Spine
{
    OFFSET 0.0 0.0 -0.0
    CHANNELS 6 Xposition Yposition Zposition Zrotation Xrotation Yrotation
    JOINT ShoulderCenter
    {
        OFFSET 0.0 0.23286856710910797 0.0
        CHANNELS 3 Zrotation Xrotation Yrotation
        JOINT LeftShoulder
        {
            OFFSET 0.1737583875656128 0.0 0.0
            CHANNELS 3 Zrotation Xrotation Yrotation
            JOINT LeftElbow
            {
                OFFSET 0.2503998279571533 0.0 0.0
                CHANNELS 3 Zrotation Xrotation Yrotation
                JOINT LeftHand
                {
                    OFFSET 0.2497144341468811 0.0 0.0
                    CHANNELS 3 Zrotation Xrotation Yrotation
                    End Site
                    {
                        OFFSET 0.09988577663898468 0.0 0.0
                    }
                }
            }
        }
        JOINT RightShoulder
        {
            OFFSET -0.1737583875656128 0.0 0.0
            CHANNELS 3 Zrotation Xrotation Yrotation
            JOINT RightElbow
            {
                OFFSET -0.2503998279571533 0.0 0.0
                CHANNELS 3 Zrotation Xrotation Yrotation
                JOINT RightHand
                {
                    OFFSET -0.2497144341468811 0.0 0.0
                    CHANNELS 3 Zrotation Xrotation Yrotation
                    End Site
                    {
                        OFFSET -0.09988577663898468 0.0 0.0
                    }
                }
            }
        }
        End Site
        {
            OFFSET 0.0 0.09314742684364319 0.0
        }
    }
    JOINT LeftHip
    {
        OFFSET 0.224323840580656 -0.224323840580656 0.0
        CHANNELS 3 Zrotation Xrotation Yrotation
        JOINT LeftKnee
        {
            OFFSET 0.0 -0.385329931974411 0.0
            CHANNELS 3 Zrotation Xrotation Yrotation
            JOINT LeftFoot
            {
                OFFSET 0.0 -0.4565797448158264 0.0
                CHANNELS 3 Zrotation Xrotation Yrotation
                End Site
                {
                    OFFSET 0.0 0.0 0.18263190984725952
                }
            }
        }
    }
    JOINT RightHip
    {
        OFFSET -0.224323840580656 -0.224323840580656 0.0
        CHANNELS 3 Zrotation Xrotation Yrotation
        JOINT RightKnee
        {
            OFFSET 0.0 -0.385329931974411 0.0
            CHANNELS 3 Zrotation Xrotation Yrotation
            JOINT RightFoot
            {
                OFFSET 0.0 -0.4565797448158264 0.0
                CHANNELS 3 Zrotation Xrotation Yrotation
                End Site
                {
                    OFFSET 0.0 0.0 0.18263190984725952
                }
            }
        }
    }
}
MOTION
Frames: 12
Frame Time: 0.03333333333333333
-0.3385336101055145 0.32797691226005554 3.4734749794006348 6.657900645391097 -18.68923840789829 135.2620909572523 -9.882701866320727e-07 -1.2305819905632758e-07 -3.557959275097778 117.18021920073738 -52.59112149428863 -176.57706165684414 -1.1787560133984926e-07 2.2216644420023584e-06 25.102906001305556 0.0 0.0 3.1805546814635168e-15 -96.26014385308544 -56.88124393254747 -179.3931926024799 -2.173745047766594e-06 1.9740073829080127e-07 -11.792149287413073 -1.6552148617688095e-32 -1.590277340731758e-15 -1.1927080055488184e-15 19.065748937563097 6.716998800070963 -92.72634195485087 6.257717310674762 -8.15279395669908 50.15054066028357 1.5902773407317578e-15 -7.951386703658788e-16 6.460501696722765e-15 4.86923389008215 1.9299492514001542 34.01076193493462 1.7850917254082244 10.481551080915922 32.00577480985355 0.0 0.0 -5.963540027744093e-16
-0.3385724127292633 0.325874000787735 3.469122886657715 6.954684687744535 -18.919154010062723 135.3559524549991 1.0158917389979081e-06 -6.526572575209138e-07 -3.866245530966051 117.75484203949355 -51.92418737292967 -176.59779616370818 1.0987318667664074e-06 8.413507146706442e-07 23.735895558037342 0.0 0.0 -3.180554681463516e-15 -95.68495179786403 -53.89118443439369 -179.45967886406666 2.0348986441874587e-07 2.058641651241794e-06 -10.669411829531157 0.0 0.0 -7.951386703658792e-16 19.686156890077182 7.133759499431231 -95.51824327034609 6.904090172472195 -8.506259251098175 52.0393789092848 7.951386703658791e-16 -4.275971726236091e-32 -6.162324695335563e-15 4.662140562779784 2.14126093964007 35.42807011878409 2.981145564053237 9.0029734023496 26.696662526224852 7.951386703658792e-16 -5.517382872562698e-33 -7.951386703658792e-16
-0.339160293340683 0.3250463902950287 3.4640650749206543 7.290508123534551 -19.038339787372955 135.82139894096701 -1.1381580059805715e-06 1.3871849326642568e-06 -4.727572487385272 117.62947740413166 -48.24834116454589 -177.30715301587801 8.915184753745322e-08 4.293526419063117e-07 20.097806738530597 9.54166404439055e-15 -3.1805546814635176e-15 -6.3611093629270335e-15 -95.5492173355315 -52.18853919718457 -179.51344034275905 3.730982735517266e-06 1.6404179623781961e-06 -12.530306294333624 0.0 0.0 7.951386703658792e-16 20.229908853860692 7.468683319478447 -98.52998393696348 7.711536497096821 -8.68091860735916 54.04987081479613 -4.62080815577126e-32 7.951386703658792e-16 6.6592863643142385e-15 4.381984132977399 2.949029601021687 39.09319468193283 0.8143807191436047 5.83587681856646 20.398847736775846 0.0 0.0 -1.6896696745274934e-15
-0.3397974967956543 0.3242813050746918 3.4594919681549072 7.468505803020831 -18.943566763430415 135.41578489754056 1.092022746755673e-06 -1.887243411315276e-09 -3.07645068992705 120.60544931045203 -53.683954818006214 -175.11317033045228 -2.517117420844313e-06 4.291016029648913e-06 18.391959568619676 -8.827812596100317e-32 3.1805546814635164e-15 3.1805546814635164e-15 -95.55486240436225 -53.49383029564298 -176.88089360724155 -1.1831564647522396e-06 1.1522809534266933e-06 -13.7273547659541 0.0 0.0 1.5902773407317584e-15 19.715328465121523 8.169513989630591 -95.83612285963203 7.287212775244673 -8.294120438117758 48.51853277544806 1.5902773407317584e-15 -7.951386703658791e-16 6.5598940305185035e-15 4.015075707881538 3.8712000280274075 42.39704409745843 1.2107531740126485 5.141703796303651 17.316333752987354 -3.9756933518293955e-16 0.0 0.0
-0.34100380539894104 0.323881596326828 3.4559009075164795 7.25883940563881 -18.41878803713872 135.34030751946796 2.493926866869368e-07 -2.2937685226212392e-07 -2.904924162742884 120.89833954413989 -53.64220603250196 -174.75087505768707 -2.3232925693788235e-06 7.644520980762434e-06 16.76046785931601 0.0 3.1805546814635168e-15 0.0 -96.20253676446252 -54.00605570092855 -176.86169670987272 -1.612459660779554e-06 -1.5224294862156167e-06 -13.036629033514627 6.3611093629270335e-15 -1.5902773407317584e-15 8.827812596100317e-32 17.938593780685654 8.649536279637738 -87.48730034613332 6.2352551778450485 -8.04434969964676 41.98082992527386 0.0 0.0 1.1927080055488184e-15 2.700658432835196 4.966258760812984 49.362254700928766 1.1031680205842624 3.1612551832076266 10.996373499717226 0.0 0.0 -7.95138670365879e-16
-0.34105831384658813 0.32370370626449585 3.454498052597046 7.3189915047273555 -18.46372914251202 135.8121838934701 -7.171786074411989e-07 -1.5481198196540895e-06 -3.1236162627697004 121.34204574387974 -52.82749919439879 -174.7507933668741 5.113633997576565e-06 -1.161527937493524e-06 15.83479371363872 -6.361109362927035e-15 9.541664044390553e-15 3.1805546814635183e-15 -96.69609518023569 -58.51302349879071 -177.18852541198405 3.643347097851655e-06 -1.707440267066265e-06 -11.322236521188676 -6.361109362927033e-15 1.5902773407317582e-15 8.827812596100317e-32 18.066979665278556 8.398336541228476 -88.65040775838732 6.200298445734813 -7.923598279980563 42.17022077830291 0.0 0.0 -2.981770013872047e-16 3.1461789602409693 5.415489998845643 49.44310687831636 -0.058202868528584854 3.7187977275188198 13.35957576257743 0.0 0.0 -3.876301018033661e-15
-0.34131568670272827 0.32324549555778503 3.4519810676574707 7.312317052614249 -18.500579143907846 136.11034809931985 -8.954349753174202e-07 -5.121958414430326e-07 -3.386003856037971 122.27088063973717 -57.05027432363596 -174.02702946832528 7.792369894803712e-07 5.433079081685638e-06 16.035283327551955 9.54166404439055e-15 -3.1805546814635168e-15 2.648343778830095e-31 -97.43886169394534 -60.07511802292774 -177.9111761824795 1.4008931408180222e-06 -6.958689253648318e-06 -10.936094928334835 0.0 0.0 0.0 17.98842061019687 8.260361589520937 -89.26027704060884 6.026143910590798 -7.783083379875914 41.638362214600434 1.5902773407317584e-15 -1.5902773407317584e-15 1.1927080055488188e-15 3.155379514710866 5.801115323709385 50.10104975407948 0.4031882032606101 5.344855823793211 17.95333360511282 0.0 0.0 -2.782985346280577e-15
-0.3412468135356903 0.3230372965335846 3.4506499767303467 7.261124801553992 -18.44405123210079 136.65054291279813 1.1762121359704575e-07 1.0635126015613022e-06 -3.5992675199774187 122.42642852851844 -57.24549068870487 -173.86483156152732 -2.7509024500685842e-06 -6.815007206343201e-07 16.305017782319734 0.0 0.0 -3.1805546814635176e-15 -97.7957935074504 -60.02838429101427 -177.9953800904785 5.210982472705256e-07 1.2206204652676303e-06 -9.946691079449252 0.0 0.0 2.3854160110976376e-15 17.859592483999066 8.08018819598647 -89.6176884365346 5.972548002792649 -7.710881030588777 41.64866145272576 5.241513728934563e-32 -7.951386703658794e-16 7.553817368475854e-15 3.8244017197549205 6.3106244999942005 49.57594211975687 -1.147437873200967 5.938013708747356 20.66187644984744 -7.951386703658792e-16 -3.1805546814635168e-15 7.951386703658792e-16
-0.3412924110889435 0.3229654133319855 3.449112892150879 7.206938932817462 -18.165522213927538 137.26262886590055 -7.355312225695342e-07 8.468638735283365e-07 -3.8909657911018423 122.3771755351099 -60.737164386654584 -173.68977750720092 -7.902706358198014e-07 -1.3776472346863133e-06 17.311227100485876 9.54166404439055e-15 -7.945031336490286e-31 -9.54166404439055e-15 -100.70654132186634 -70.15361694450974 177.2637958973048 1.4212462262823277e-06 3.78227403224123e-07 -4.548113962178228 0.0 0.0 -5.963540027744093e-16 17.190947307671376 8.138029948563428 -86.65209569198187 5.207643856081848 -8.428748487370772 40.92170764243233 0.0 0.0 4.472655020808069e-15 2.964581569886634 7.18299539631483 54.63237853299097 -0.7311609076514449 4.674453039541883 15.941729286500347 0.0 0.0 1.3914926731402882e-15
-0.34111109375953674 0.32290539145469666 3.4486660957336426 7.171270422558966 -18.120816562484475 137.1207794084206 8.666399563959753e-08 6.833217403889198e-07 -4.267081120211447 121.75878650550494 -61.570607642012895 -174.2626413777227 5.888605832612969e-07 -2.2639127198346105e-06 17.87829985612845 6.3611093629270335e-15 -5.29668755766019e-31 -9.54166404439055e-15 -103.05259382067483 -71.19448736164165 177.71069623253646 3.3549851924052436e-06 -5.464518620615643e-06 -10.066858737715062 2.2069531490250793e-32 3.1805546814635168e-15 -7.951386703658792e-16 17.062122253737876 8.064947747187642 -86.37068543541287 4.835835083963537 -8.18148064039837 39.28477349118407 -3.1805546814635176e-15 -1.5902773407317588e-15 -3.975693351829398e-16 3.0866187159135654 7.284905968500453 54.49604131678432 -0.6358260539766424 4.826959657999965 16.213042406766153 0.0 0.0 7.951386703658792e-16
-0.34066081047058105 0.32290610671043396 3.4479129314422607 7.146385035252508 -18.072486450272287 137.1750554312805 -1.3590260292370333e-07 -5.496035093350426e-07 -4.02140564448655 122.09816454519952 -65.03880339975012 -173.58022760333262 3.9582378194967376e-07 -1.043611247434423e-06 18.390497627528934 0.0 0.0 0.0 -101.90198467511316 -67.01639788117433 179.12914205628238 9.45422948503207e-08 9.683201144675324e-07 -9.654042240854357 0.0 0.0 -5.963540027744094e-16 16.932465219740983 7.985341004565219 -86.04395750660098 4.672326722772354 -7.986164823295787 38.45110960918182 0.0 0.0 2.981770013872048e-16 3.0123795834422933 7.437138995151382 54.760853342992846 -0.5529975074370596 4.869719540111171 16.1757571081429 0.0 0.0 1.3914926731402886e-15
-0.3382723033428192 0.3228308856487274 3.4492950439453125 7.223506114900251 -18.139885824612506 137.67249674319842 1.210501528230351e-06 -7.438592615640956e-07 -3.6560356897968687 122.72646265022524 -69.62626988427681 -172.36501776343457 1.6590499169547918e-06 7.100272476855669e-10 19.791661618734487 0.0 0.0 3.1805546814635168e-15 -100.10805912521798 -62.007442273693265 -178.97991726656937 -2.5699316582960016e-06 -4.7246490011207016e-07 -10.157994857042862 0.0 0.0 5.963540027744094e-16 17.550907432390275 7.689697444208419 -89.57991127566652 4.594473493638876 -7.931698772774822 38.936161792112934 0.0 0.0 -7.653209702271589e-15 3.521187946716567 7.485491509883588 52.882989908753416 -0.2442175571978968 5.027711889591505 15.907820455545137 0.0 0.0 9.939233379573492e-16
